<?xml version="1.0" encoding="utf-8"?>
<!-- Generator: Adobe Illustrator 23.0.1, SVG Export Plug-In . SVG Version: 6.00 Build 0)  -->
<svg version="1.1" id="Layer_1" xmlns="http://www.w3.org/2000/svg" xmlns:xlink="http://www.w3.org/1999/xlink" x="0px" y="0px"
	 viewBox="0 0 2834.6 2834.6" style="enable-background:new 0 0 2834.6 2834.6;" xml:space="preserve">
<style type="text/css">
	.st0{display:none;}
	.st1{display:inline;}
	.st2{fill:url(#XMLID_15_);}
	.st3{fill:url(#XMLID_16_);stroke:#707071;stroke-miterlimit:10;}
	.st4{fill:url(#XMLID_17_);}
	.st5{fill:url(#XMLID_18_);}
	.st6{fill:url(#XMLID_19_);}
	.st7{fill:#251319;}
	.st8{opacity:0.57;fill:#231F20;enable-background:new    ;}
	.st9{fill:#FFFFFF;}
	.st10{fill:#59595B;}
	.st11{fill:none;}
	.st12{fill:#231F20;}
	.st13{fill:url(#XMLID_20_);}
	.st14{fill:url(#XMLID_21_);stroke:#707071;stroke-miterlimit:10;}
	.st15{fill:url(#XMLID_22_);}
	.st16{fill:url(#XMLID_23_);}
	.st17{fill:url(#XMLID_24_);}
	.st18{fill:#2E2A2D;}
	.st19{font-family:'SegoeUI';}
	.st20{font-size:36.3831px;}
	.st21{opacity:0.27;fill:#FFFFFF;enable-background:new    ;}
</style>
<g id="Group_24" transform="translate(-3169.429 119.772)" class="st0">
	<g id="logonm1" transform="translate(3169.429 -119.772)" class="st1">
		<g id="XMLID_69_" transform="translate(0 0)">
			<g id="XMLID_70_" transform="translate(0 0)">
				
					<linearGradient id="XMLID_15_" gradientUnits="userSpaceOnUse" x1="-18.3244" y1="2827.9177" x2="-10.0993" y2="2832.197" gradientTransform="matrix(62.3764 0 0 -69.1638 1111.3225 197100.9844)">
					<stop  offset="0" style="stop-color:#9D1F60"/>
					<stop  offset="0.439" style="stop-color:#5E0A3A"/>
					<stop  offset="0.814" style="stop-color:#29101F"/>
					<stop  offset="1" style="stop-color:#1C0C18"/>
				</linearGradient>
				<path id="XMLID_71_" class="st2" d="M563.3,1363.2c-5.1-5.2-10.9-9.7-17.3-13.2l-376.3-217.4c-37.6-21.7-85.6-8.8-107.2,28.8
					c-6.9,11.9-10.5,25.5-10.5,39.2v434.6c-0.2,21.3,8.5,41.8,24,56.5c25.2,24.4,63.6,29.2,93.9,11.5l376.3-217.4
					c24.4-13.9,39.5-39.9,39.4-68C585.4,1397.4,577.4,1377.9,563.3,1363.2z M516.3,1476.9l-327,188.8c-26.4,15.3-59.7,11.3-81.7-9.8
					c-13.4-12.7-21-30.5-20.9-49v-377.7c0-37.7,30.6-68.3,68.3-68.3c12,0,23.8,3.2,34.2,9.2l327,188.8c5.5,3.1,10.5,7,14.9,11.5
					c12.4,12.7,19.3,29.8,19.2,47.6C550.6,1442.4,537.5,1465,516.3,1476.9L516.3,1476.9z"/>
			</g>
		</g>
		<g id="XMLID_67_" transform="translate(7.948 8.794)">
			
				<linearGradient id="XMLID_16_" gradientUnits="userSpaceOnUse" x1="-30.6855" y1="2817.3386" x2="-22.4562" y2="2821.6201" gradientTransform="matrix(46.7151 0 0 -51.5151 1482.6134 146613.9063)">
				<stop  offset="0" style="stop-color:#EDD49A"/>
				<stop  offset="3.800000e-02" style="stop-color:#D8B386"/>
				<stop  offset="0.116" style="stop-color:#B27662"/>
				<stop  offset="0.188" style="stop-color:#944646"/>
				<stop  offset="0.25" style="stop-color:#7D2431"/>
				<stop  offset="0.301" style="stop-color:#700F24"/>
				<stop  offset="0.335" style="stop-color:#6A0A20"/>
				<stop  offset="0.34" style="stop-color:#680A21"/>
				<stop  offset="0.445" style="stop-color:#49111F"/>
				<stop  offset="0.556" style="stop-color:#30101B"/>
				<stop  offset="0.677" style="stop-color:#250E1A"/>
				<stop  offset="0.813" style="stop-color:#1E0C18"/>
				<stop  offset="1" style="stop-color:#1C0C18"/>
			</linearGradient>
			<path id="XMLID_68_" class="st3" d="M480.2,1358.3l-280.4-161.9c-27.9-16.2-63.7-6.6-79.8,21.3c-5.2,8.9-7.9,19.1-7.9,29.4v323.6
				c0,32.3,26.2,58.5,58.5,58.5c10.3,0,20.3-2.7,29.2-7.8l280.4-161.9c27.9-16.1,37.5-51.9,21.4-79.8
				C496.4,1370.8,489.1,1363.4,480.2,1358.3l-280.4-161.9c-27.9-16.2-63.7-6.6-79.8,21.3c-5.2,8.9-7.9,19.1-7.9,29.4v323.6
				c0,32.3,26.2,58.5,58.5,58.5c10.3,0,20.3-2.7,29.2-7.8l280.4-161.9c28.5-15.1,40-49.4,24.9-77.9
				C499.6,1371.2,491.1,1362.7,480.2,1358.3z"/>
		</g>
		<g id="XMLID_65_" transform="translate(5.729 6.349)">
			
				<linearGradient id="XMLID_17_" gradientUnits="userSpaceOnUse" x1="-27.0397" y1="2820.3921" x2="-18.8129" y2="2824.6724" gradientTransform="matrix(50.8804 0 0 -56.442 1402.8168 160676.3281)">
				<stop  offset="0" style="stop-color:#9D1F61"/>
				<stop  offset="0.435" style="stop-color:#5E0F3B"/>
				<stop  offset="0.813" style="stop-color:#2A1020"/>
				<stop  offset="1" style="stop-color:#1C0C18"/>
			</linearGradient>
			<path id="XMLID_66_" class="st4" d="M498.5,1355.9l-307.1-177.3c-30.6-17.7-69.8-7.2-87.5,23.4c-5.6,9.8-8.6,20.8-8.6,32.1v354.6
				c0,35.4,28.7,64.1,64,64.1c11.3,0,22.3-3,32.1-8.6L498.5,1467c30.7-17.7,41.2-56.8,23.5-87.5
				C516.4,1369.7,508.3,1361.6,498.5,1355.9l-307.1-177.3c-30.6-17.7-69.8-7.2-87.5,23.4c-5.6,9.8-8.6,20.8-8.6,32.1v354.6
				c0,35.4,28.7,64.1,64,64.1c11.3,0,22.3-3,32.1-8.6L498.5,1467c30.7-17.6,41.2-56.8,23.6-87.5
				C516.4,1369.7,508.3,1361.6,498.5,1355.9z"/>
		</g>
		<g id="XMLID_1_" transform="translate(13.368 18.572)">
			
				<linearGradient id="XMLID_18_" gradientUnits="userSpaceOnUse" x1="-55.7144" y1="2804.689" x2="-47.1592" y2="2804.689" gradientTransform="matrix(22.6296 0 0 -32.2432 1413.8356 91832.2734)">
				<stop  offset="0" style="stop-color:#FFFFFF"/>
				<stop  offset="1" style="stop-color:#FFFFFF"/>
			</linearGradient>
			<path id="XMLID_3_" class="st5" d="M326.3,1342.5c-20.9-19.2-33.1-46.1-33.6-74.5l0.5-3.6l-13.7-2.2L247,1470.6
				c-8.9-11.1-21.7-18.2-35.8-19.9c-27.9-4.6-53.8,11.5-57.7,35.1c-3.8,23.8,15.6,47.1,43.7,51.7c27.6,4.6,53.6-12.5,57.4-33.6h-4.1
				l-4.3-1.2h4.6l32.4-192.9c8.6,16.8,19.9,32,33.6,44.9c36.3,38,2.2,65.9,2.2,65.9C346.9,1411.5,360.6,1374.9,326.3,1342.5z"/>
			
				<linearGradient id="XMLID_19_" gradientUnits="userSpaceOnUse" x1="-93.416" y1="2773.2322" x2="-84.8693" y2="2773.2322" gradientTransform="matrix(11.9634 0 0 -10.4057 1271.3341 30350.3418)">
				<stop  offset="0" style="stop-color:#FFFFFF"/>
				<stop  offset="1" style="stop-color:#FFFFFF"/>
			</linearGradient>
			<path id="XMLID_2_" class="st6" d="M255.6,1501.1c-3.8,24.3-29.8,40.1-57.7,35.6s-47.6-27.6-43.7-51.9s29.8-40.1,57.7-35.6
				C239.8,1453.7,259.5,1476.9,255.6,1501.1z"/>
		</g>
	</g>
	<g id="logon2" transform="translate(3247.06 -104.532)" class="st1">
		<g id="Group_23" transform="translate(0 0)">
			<g id="XMLID_36_" transform="translate(0 0)">
				<path id="XMLID_54_" class="st7" d="M804.3,1449.3l68.3,118.4h-63.7L746,1457.4h-51v110.2h-55.5v-164.8h122
					c7.5-0.2,14.9-1.7,21.9-4.6c6.7-2.3,12.7-6.4,17.3-11.8c5.2-4.8,9.3-10.7,11.8-17.3c3-6.9,4.5-14.3,4.6-21.9
					c-0.2-7.5-1.7-14.9-4.6-21.9c-2.9-6.4-6.9-12.3-11.8-17.3c-4.9-5.1-10.8-9.1-17.3-11.8c-6.9-3-14.3-4.5-21.9-4.6H638.6v-54.6
					h122.9c18.4-0.2,36.5,4.2,52.8,12.7c14.5,7.6,27,18.5,36.4,31.9c9.1,13.2,15.6,28.1,19.1,43.7c2.9,15.7,2.6,31.8-0.9,47.4
					c-3.9,16-11.4,31-21.9,43.7C836.4,1431.4,821.5,1442.9,804.3,1449.3z"/>
				<path id="XMLID_51_" class="st7" d="M1131.3,1513v55.5H1062c-22.2,0-44.1-4.3-64.7-12.8c-19.5-8.8-37.3-20.8-52.8-35.5
					c-14.9-15.3-26.9-33.2-35.5-52.8c-17-41.4-17-87.9,0-129.3c8.2-19.8,20.2-37.8,35.5-52.8c15.3-14.9,33.2-26.9,52.8-35.5
					c20.4-8.9,42.4-13.3,64.7-12.7h69.2v55.5H1062c-14.7-0.1-29.2,2.7-42.8,8.2c-13.1,5.4-24.8,13.5-34.6,23.7
					c-10,9.9-18,21.7-23.7,34.6c-5.6,13.6-8.4,28.1-8.2,42.8c-0.1,14.7,2.7,29.2,8.2,42.8c5.4,13.1,13.5,24.8,23.7,34.6
					c20.3,20.9,48.3,32.5,77.4,31.9h69.2L1131.3,1513z M1131.3,1375.5v55.5H984.6c-3.4-8.7-5.2-18-5.5-27.3c0.1-9.4,2-18.6,5.5-27.3
					h146.6L1131.3,1375.5z"/>
				<path id="XMLID_48_" class="st7" d="M1404.4,1238l137.5,330.6h-59.2l-78.3-186.7v186.7h-55.5V1238H1404.4z M1674.9,1238v330.6
					h-54.6v-186.7l-63.7,151.2l-29.1-71.9l92.9-223.1L1674.9,1238z"/>
				<path id="XMLID_46_" class="st7" d="M2004.6,1238v192.2c0.2,18.5-3.6,36.8-10.9,53.7c-7.2,16.1-17.1,30.9-29.1,43.7
					c-12.2,12.8-27.1,22.8-43.7,29.1c-17.1,6.9-35.3,10.6-53.7,10.9h-2.7c-18.5,0.2-36.8-3.6-53.7-10.9
					c-16.1-7.2-30.9-17.1-43.7-29.1c-12.7-12.4-22.6-27.3-29.1-43.7c-6.9-17.1-10.6-35.3-10.9-53.7V1238h55.5v192.2
					c-0.3,11,1.9,21.9,6.4,31.9c4.1,9.8,10,18.7,17.3,26.4c7.5,7.6,16.5,13.5,26.4,17.3c10,4.4,20.9,6.6,31.9,6.4h2.7
					c11,0.3,21.9-1.9,31.9-6.4c9.8-4.1,18.7-10,26.4-17.3c7.6-7.5,13.5-16.5,17.3-26.4c4.4-10,6.5-20.9,6.4-31.9V1238H2004.6z"/>
				<path id="XMLID_43_" class="st7" d="M2299.7,1238v55.5h-129.4c-7.5,0.2-14.9,1.7-21.9,4.6c-6.4,2.9-12.3,6.9-17.3,11.8
					c-5.1,4.9-9.1,10.8-11.8,17.3c-2.9,6.6-4.4,13.7-4.6,20.9v55.5h-54.6v-55.5c-0.1-14.7,2.7-29.2,8.2-42.8
					c5.4-13.1,13.5-24.8,23.7-34.6c20.3-20.9,48.3-32.5,77.4-31.9h130.3V1238z M2299.7,1402.8v55.5c0.1,14.7-2.7,29.2-8.2,42.8
					c-5.4,13.1-13.5,24.8-23.7,34.6c-20.3,20.9-48.3,32.5-77.4,31.9h-129.4v-55.5h129.3c7.2-0.1,14.3-1.7,20.9-4.6
					c13-5.7,23.4-16.1,29.1-29.1c3-6.9,4.5-14.3,4.6-21.9V1401h54.7V1402.8z"/>
				<path id="XMLID_41_" class="st7" d="M2412.6,1238v329.7h-54.6V1238H2412.6z"/>
				<path id="XMLID_37_" class="st7" d="M2530.1,1238l173.9,329.7h-61.9l-56.5-105.6l-31-59.2l-87.4-164.8H2530.1z M2539.2,1432.9
					l31,59.2l-40.1,76.5h-61.9L2539.2,1432.9z M2704,1238l-71,135.7l-31-59.2l40.1-76.5H2704L2704,1238z"/>
			</g>
		</g>
	</g>
</g>
<g id="Group_303" transform="translate(-131.95 -11.383)">
	<g id="Group_31">
		<path id="Path_5" class="st8" d="M2341.1,709.6V293.9c0-107.6-87.2-194.8-194.8-194.8h-930c-107.6,0-194.8,87.2-194.8,194.8v159.5
			h-1.8c-6.9,0-12.6,5.6-12.6,12.6c0,0,0,0,0,0v76.4c0,6.9,5.6,12.6,12.5,12.6c0,0,0,0,0,0h1.8v93.9c-7.9,0-14.3,6.4-14.3,14.3l0,0
			v161.4c0,7.9,6.4,14.3,14.3,14.3l0,0v53.9c-7.9,0-14.3,6.4-14.3,14.3l0,0v161.4c0,7.9,6.4,14.3,14.3,14.3c0,0,0,0,0,0v1505.5
			c0,107.6,87.2,194.8,194.8,194.8h930c107.6,0,194.8-87.2,194.8-194.8V1022c7.9,0,14.3-6.4,14.3-14.3V723.9
			C2355.5,716,2349.1,709.6,2341.1,709.6z"/>
		<g id="Group_30">
			<path id="Path_6" class="st9" d="M2221.8,2557.1c0,65.3-54.7,115.3-120,115.3H1171c-62.7,1.1-114.4-48.8-115.5-111.4
				c0-1.3,0-2.6,0-3.8V264.5c0-65.3,50.3-119.2,115.5-119.2h107.6c22.7,0,31.2,0.2,32.5,29c1.4,30,22,46.3,49.8,55
				c9.8,2.2,19.9,2.8,30,2h491.9c10,0,20.5,1.7,30-1.2c27.8-8.7,48.4-26.5,49.8-56.4c1.4-28.8,9.8-28.3,32.5-28.3h106.6
				c65.8,0.3,119.2,53.4,120,119.2L2221.8,2557.1z"/>
			<g id="Group_29">
				<path id="Path_7" class="st10" d="M2292.8,269.1c0-107.6-87.2-194.8-194.8-194.8h-930c-107.6,0-194.8,87.2-194.8,194.8v2294.4
					c0,107.6,87.2,194.8,194.8,194.8H2098c107.6,0,194.8-87.2,194.8-194.8L2292.8,269.1z M2262.9,2561.7
					c0,92.1-74.7,166.8-166.8,166.8h-929.9c-92.1,0-166.8-74.7-166.8-166.8V267.2c0-92.1,74.7-166.8,166.8-166.8c0,0,0,0,0,0h929.9
					c92.1,0,166.8,74.7,166.8,166.8V2561.7z"/>
				<path id="Path_8" d="M973.2,428.6h-1.8c-6.9,0-12.6,5.6-12.6,12.5v76.5c0,6.9,5.6,12.6,12.6,12.6l0,0h1.8"/>
				<path id="Path_9" d="M2292.8,997.3L2292.8,997.3c7.9,0,14.3-6.4,14.3-14.3V699.1c0-7.9-6.4-14.3-14.3-14.3l0,0"/>
				<g id="Group_28">
					<path id="Path_10" d="M973.2,624.1L973.2,624.1c-7.9,0-14.3,6.4-14.3,14.3l0,0v161.4c0,7.9,6.4,14.3,14.3,14.3l0,0l0,0"/>
					<path id="Path_11" d="M973.2,868L973.2,868c-7.9,0-14.3,6.4-14.3,14.3l0,0v161.4c0,7.9,6.4,14.3,14.3,14.3l0,0l0,0"/>
				</g>
				<path id="Path_12" class="st11" d="M2101.8,145.3h-106.6c-22.8,0-31.2,0.2-32.5,29c-1.4,30-22,46.3-49.8,55
					c-9.8,2.2-19.9,2.8-30,2h-491.9c-10,0-20.5,1.7-30-1.2c-27.8-8.7-48.4-26.5-49.8-56.4c-1.4-28.8-9.8-28.3-32.5-28.3H1171
					c-65.3,0-115.5,54-115.5,119.2v2292.5c-1,62.7,49,114.3,111.7,115.3c1.3,0,2.6,0,3.8,0h930.8c65.3,0,120-50,120-115.3V264.5
					C2221,198.7,2167.6,145.7,2101.8,145.3z"/>
				<path id="Path_13" class="st12" d="M2262.9,267.3c0-92.1-74.7-166.8-166.8-166.8h-929.9c-92.1,0-166.8,74.7-166.8,166.8v2294.4
					c0,92.1,74.7,166.8,166.8,166.8c0,0,0,0,0,0h929.9c92.1,0,166.8-74.7,166.8-166.8V267.3z M1787.1,166c0,9-7.3,16.4-16.4,16.4
					c-9,0-16.4-7.3-16.4-16.4s7.3-16.4,16.4-16.4l0,0C1779.8,149.6,1787.1,157,1787.1,166z M1564.6,156.5h145.8
					c5.2-1,10.1,2.5,11.1,7.6s-2.5,10.1-7.6,11.1c-1.1,0.2-2.3,0.2-3.4,0h-145.8c-5.2,1-10.1-2.5-11.1-7.6c-1-5.2,2.5-10.1,7.6-11.1
					C1562.3,156.3,1563.5,156.3,1564.6,156.5z M2221.8,2557.1c0,65.3-54.7,115.3-120,115.3H1171c-62.7,1.1-114.4-48.8-115.5-111.4
					c0-1.3,0-2.6,0-3.8V264.5c0-65.3,50.3-119.2,115.5-119.2h107.6c22.7,0,31.2,0.2,32.5,29c1.4,30,22,46.3,49.8,55
					c9.8,2.2,19.9,2.8,30,2h491.9c10,0,20.5,1.7,30-1.2c27.8-8.7,48.4-26.5,49.8-56.4c1.4-28.8,9.8-28.3,32.5-28.3h106.6
					c65.8,0.3,119.2,53.4,120,119.2L2221.8,2557.1z"/>
				<circle id="Ellipse_1" class="st9" cx="1770.7" cy="166" r="16.4"/>
				<path id="Path_14" class="st9" d="M1564.6,175.2h145.8c5.2,1,10.1-2.5,11.1-7.6s-2.5-10.1-7.6-11.1c-1.1-0.2-2.3-0.2-3.4,0
					h-145.8c-5.2-1-10.1,2.5-11.1,7.6c-1,5.2,2.5,10.1,7.6,11.1C1562.3,175.4,1563.5,175.4,1564.6,175.2z"/>
			</g>
			<g id="Group_24_1_" transform="translate(-3029.455 332.258)">
				<g id="logonm1_1_" transform="translate(3239.007 -141.333)">
					<g id="XMLID_11_" transform="translate(0 0)">
						<g id="XMLID_12_" transform="translate(0 0)">
							
								<linearGradient id="XMLID_20_" gradientUnits="userSpaceOnUse" x1="-76.963" y1="2651.7302" x2="-71.0173" y2="2654.8237" gradientTransform="matrix(73.2695 0 0 -81.2452 6797.1816 216764.9688)">
								<stop  offset="0" style="stop-color:#9D1F60"/>
								<stop  offset="0.439" style="stop-color:#5E0A3A"/>
								<stop  offset="0.814" style="stop-color:#29101F"/>
								<stop  offset="1" style="stop-color:#1C0C18"/>
							</linearGradient>
							<path id="XMLID_13_" class="st13" d="M1663.4,1198.6c-4.3-4.4-9.3-8.2-14.7-11.2l-319.5-184.6c-31.9-18.4-72.6-7.5-91.1,24.4
								c-5.8,10.1-8.9,21.6-8.9,33.3v369.1c-0.2,18.1,7.2,35.5,20.4,47.9c21.4,20.8,54,24.8,79.8,9.8l319.5-184.6
								c20.7-11.8,33.5-33.9,33.5-57.7C1682.1,1227.6,1675.4,1211.1,1663.4,1198.6z M1623.4,1295.1l-277.7,160.4
								c-22.4,13-50.7,9.6-69.4-8.4c-11.4-10.8-17.8-25.9-17.7-41.6v-320.7c0-32,25.9-58,58-58c10.2,0,20.3,2.7,29.1,7.8
								l277.7,160.4c4.7,2.6,8.9,5.9,12.6,9.8c10.5,10.8,16.4,25.3,16.3,40.4C1652.6,1265.8,1641.5,1285,1623.4,1295.1
								L1623.4,1295.1z"/>
						</g>
					</g>
					<g id="XMLID_9_" transform="translate(9.336 10.329)">
						
							<linearGradient id="XMLID_21_" gradientUnits="userSpaceOnUse" x1="-84.8623" y1="2640.6328" x2="-78.9157" y2="2643.7268" gradientTransform="matrix(54.5497 0 0 -60.5083 5853.7632 161074.0313)">
							<stop  offset="0" style="stop-color:#EDD49A"/>
							<stop  offset="3.800000e-02" style="stop-color:#D8B386"/>
							<stop  offset="0.116" style="stop-color:#B27662"/>
							<stop  offset="0.188" style="stop-color:#944646"/>
							<stop  offset="0.25" style="stop-color:#7D2431"/>
							<stop  offset="0.301" style="stop-color:#700F24"/>
							<stop  offset="0.335" style="stop-color:#6A0A20"/>
							<stop  offset="0.34" style="stop-color:#680A21"/>
							<stop  offset="0.445" style="stop-color:#49111F"/>
							<stop  offset="0.556" style="stop-color:#30101B"/>
							<stop  offset="0.677" style="stop-color:#250E1A"/>
							<stop  offset="0.813" style="stop-color:#1E0C18"/>
							<stop  offset="1" style="stop-color:#1C0C18"/>
						</linearGradient>
						<path id="XMLID_10_" class="st14" d="M1590.2,1191.6l-238.1-137.5c-23.7-13.7-54.1-5.6-67.8,18.1c-4.4,7.6-6.7,16.2-6.7,25
							v274.8c0,27.4,22.2,49.7,49.7,49.7c8.7,0,17.2-2.3,24.8-6.6l238.1-137.5c23.7-13.7,31.8-44,18.1-67.7
							C1604,1202.2,1597.7,1195.9,1590.2,1191.6L1352.1,1054c-23.7-13.7-54.1-5.6-67.8,18.1c-4.4,7.6-6.7,16.2-6.7,25v274.8
							c0,27.4,22.2,49.7,49.7,49.7c8.7,0,17.2-2.3,24.8-6.6l238.1-137.5c23.7-13.7,31.8-44,18.1-67.8
							C1603.9,1202.2,1597.7,1195.9,1590.2,1191.6z"/>
					</g>
					<g id="XMLID_7_" transform="translate(6.729 7.457)">
						
							<linearGradient id="XMLID_22_" gradientUnits="userSpaceOnUse" x1="-82.7442" y1="2643.7673" x2="-76.7974" y2="2646.8613" gradientTransform="matrix(59.7577 0 0 -66.2894 6150.749 176556.125)">
							<stop  offset="0" style="stop-color:#9D1F61"/>
							<stop  offset="0.435" style="stop-color:#5E0F3B"/>
							<stop  offset="0.813" style="stop-color:#2A1020"/>
							<stop  offset="1" style="stop-color:#1C0C18"/>
						</linearGradient>
						<path id="XMLID_8_" class="st15" d="M1606.4,1190.4l-260.7-150.6c-26-15-59.3-6.1-74.3,19.9c-4.8,8.3-7.3,17.7-7.3,27.2V1388
							c0,30.1,24.4,54.4,54.4,54.4c9.6,0,18.9-2.5,27.2-7.3l260.7-150.6c26-15,34.9-48.3,19.9-74.3
							C1621.6,1202,1614.7,1195.1,1606.4,1190.4l-260.7-150.6c-26-15-59.3-6.1-74.3,19.9c-4.8,8.3-7.3,17.7-7.3,27.2V1388
							c0,30.1,24.4,54.4,54.4,54.4c9.6,0,18.9-2.5,27.2-7.3l260.7-150.6c26-15,34.9-48.3,19.9-74.4
							C1621.6,1202,1614.7,1195.1,1606.4,1190.4z"/>
					</g>
					<g id="XMLID_4_" transform="translate(15.702 21.814)">
						
							<linearGradient id="XMLID_23_" gradientUnits="userSpaceOnUse" x1="-85.8043" y1="2628.304" x2="-79.6199" y2="2628.304" gradientTransform="matrix(26.5785 0 0 -37.8753 3591.2092 100771.7813)">
							<stop  offset="0" style="stop-color:#FFFFFF"/>
							<stop  offset="1" style="stop-color:#FFFFFF"/>
						</linearGradient>
						<path id="XMLID_6_" class="st16" d="M1457.7,1175c-17.8-16.3-28.1-39.1-28.6-63.2l0.4-3.1l-11.6-1.9l-27.5,176.9
							c-7.5-9.4-18.4-15.5-30.4-16.9c-23.7-3.9-45.7,9.8-49,29.8c-3.3,20.2,13.3,40,37.1,43.9c23.5,3.9,45.5-10.6,48.8-28.6h-3.5
							l-3.7-1h3.9l27.5-163.8c4.1,9.8,13.1,21.8,28.6,38.2c30.8,32.2,1.9,55.9,1.9,55.9C1475.3,1233.5,1486.9,1202.5,1457.7,1175z"
							/>
						
							<linearGradient id="XMLID_24_" gradientUnits="userSpaceOnUse" x1="-79.0794" y1="2612.7434" x2="-72.8949" y2="2612.7434" gradientTransform="matrix(14.0495 0 0 -12.2221 2422.3013 33235.9922)">
							<stop  offset="0" style="stop-color:#FFFFFF"/>
							<stop  offset="1" style="stop-color:#FFFFFF"/>
						</linearGradient>
						<path id="XMLID_5_" class="st17" d="M1397.8,1309.6c-3.3,20.6-25.3,34.1-49,30.2c-23.7-3.9-40.4-23.5-37.1-44.1
							c3.3-20.6,25.3-34.1,49-30.2C1384.3,1269.4,1401,1289,1397.8,1309.6z"/>
					</g>
				</g>
			</g>
		</g>
	</g>
	<g id="Group_32">
		<rect id="Rectangle_1679" x="2089.4" y="191.6" class="st18" width="8.9" height="20.3"/>
		<rect id="Rectangle_1680" x="2100.8" y="191.6" class="st18" width="8.9" height="20.3"/>
		<rect id="Rectangle_1681" x="2112.3" y="191.6" class="st18" width="8.9" height="20.3"/>
		<rect id="Rectangle_1682" x="2123.8" y="191.6" class="st18" width="8.9" height="20.3"/>
		<rect id="Rectangle_1683" x="2135.2" y="195.6" class="st18" width="4.5" height="12.3"/>
	</g>
	<g id="Group_33">
		<path id="Path_15" class="st18" d="M2035.1,209c-2.4,0-4.3,1.9-4.3,4.3c0,2.4,1.9,4.3,4.3,4.3c2.4,0,4.3-1.9,4.3-4.3c0,0,0,0,0,0
			C2039.4,210.9,2037.5,209,2035.1,209z"/>
		<path id="Path_16" class="st18" d="M2046.2,200.8c-6.7-4.7-15.6-4.7-22.3,0c-1.3,0.9-1.6,2.7-0.7,4.1c0.9,1.3,2.7,1.6,4.1,0.7l0,0
			c4.7-3.3,10.9-3.3,15.6,0c1.3,0.9,3.1,0.6,4.1-0.7C2047.9,203.5,2047.6,201.7,2046.2,200.8L2046.2,200.8z"/>
		<path id="Path_17" class="st18" d="M2054.3,192.9c-11.2-9.1-27.2-9.1-38.4,0c-1.2,1-1.4,2.9-0.4,4.1c1,1.2,2.9,1.4,4.1,0.4
			c9.1-7.3,22-7.3,31,0c1.2,1,3.1,0.8,4.1-0.4C2055.8,195.7,2055.6,193.9,2054.3,192.9L2054.3,192.9z"/>
	</g>
	<text transform="matrix(1 0 0 1 1128.241 211.9103)" class="st18 st19 st20">08.00</text>
	<path id="Path_18" class="st21" d="M1814.7,2624.1h-346.3c-10.2,0-18.5-8.3-18.6-18.6l0,0c0-10.2,8.3-18.5,18.6-18.6h346.3
		c10.2,0,18.5,8.3,18.6,18.6l0,0C1833.2,2615.8,1824.9,2624.1,1814.7,2624.1z"/>
</g>
</svg>
